<svg width="78" height="19" viewBox="0 0 78 19" fill="none" xmlns="http://www.w3.org/2000/svg">
<path d="M0.256836 12.4883H1.52246V2.35449H0.256836V0.675781H4.47559L8.70312 12.1807L12.9834 0.675781H16.9824V2.35449H15.7256V12.4883H16.9824V14H12.6582V12.4883H14.082V2.25781L9.42383 14H7.92969L3.20996 2.23145V12.4883H4.58105V14H0.256836V12.4883ZM17.8005 4.89453H21.2546V6.40625H20.1736L22.3093 12.2158L24.5417 6.40625H23.4695V4.89453H26.9236V6.40625H25.9831L21.9314 16.6279H23.1794V18.1396H19.5056V16.6279H20.613L21.5798 14.123L18.5388 6.40625H17.8005V4.89453ZM34.9926 11.5918H36.3198L35.7221 9.67578H31.6264L31.0287 11.5918H32.435V14H27.3813V11.5918H28.3745L32.0043 0.675781H35.5287L39.0795 11.5918H40.0463V14H34.9926V11.5918ZM32.3207 7.42578H35.0102L33.6567 3.09277L32.3207 7.42578ZM43.6769 4.89453H45.4963V7.19727H43.6593L43.6418 11.0469C43.6418 11.2695 43.6593 11.4512 43.6945 11.5918C43.7296 11.7266 43.7795 11.835 43.8439 11.917C43.9142 11.999 43.9963 12.0547 44.09 12.084C44.1838 12.1133 44.2921 12.1279 44.4152 12.1279C44.6379 12.1279 44.8341 12.1074 45.0041 12.0664C45.174 12.0195 45.3439 11.9668 45.5138 11.9082L45.8918 13.6045C45.5929 13.792 45.2589 13.9414 44.8898 14.0527C44.5265 14.1641 44.0929 14.2197 43.589 14.2197C43.2316 14.2197 42.8888 14.1582 42.5607 14.0352C42.2384 13.9121 41.9543 13.7275 41.7082 13.4814C41.4621 13.2295 41.2658 12.916 41.1193 12.541C40.9728 12.166 40.9025 11.7295 40.9084 11.2314L40.9347 7.19727H39.6252V4.89453H40.9435L40.9611 2.71484L43.6945 1.41406L43.6769 4.89453ZM49.9882 4.89453H51.8075V7.19727H49.9706L49.953 11.0469C49.953 11.2695 49.9706 11.4512 50.0057 11.5918C50.0409 11.7266 50.0907 11.835 50.1552 11.917C50.2255 11.999 50.3075 12.0547 50.4012 12.084C50.495 12.1133 50.6034 12.1279 50.7264 12.1279C50.9491 12.1279 51.1454 12.1074 51.3153 12.0664C51.4852 12.0195 51.6552 11.9668 51.8251 11.9082L52.203 13.6045C51.9042 13.792 51.5702 13.9414 51.2011 14.0527C50.8378 14.1641 50.4042 14.2197 49.9003 14.2197C49.5429 14.2197 49.2001 14.1582 48.872 14.0352C48.5497 13.9121 48.2655 13.7275 48.0194 13.4814C47.7733 13.2295 47.577 12.916 47.4305 12.541C47.2841 12.166 47.2137 11.7295 47.2196 11.2314L47.246 7.19727H45.9364V4.89453H47.2548L47.2723 2.71484L50.0057 1.41406L49.9882 4.89453ZM52.8629 4.89453H56.9498V11.5918H58.2154V14H52.8629V11.5918H54.234V7.30273H52.8629V4.89453ZM54.0934 1.95898C54.0934 1.74219 54.1314 1.54004 54.2076 1.35254C54.2896 1.15918 54.401 0.992188 54.5416 0.851562C54.6822 0.710938 54.8463 0.599609 55.0338 0.517578C55.2271 0.435547 55.4352 0.394531 55.6578 0.394531C55.8688 0.394531 56.068 0.435547 56.2555 0.517578C56.443 0.599609 56.607 0.710938 56.7477 0.851562C56.8883 0.992188 56.9996 1.15918 57.0816 1.35254C57.1637 1.54004 57.2047 1.74219 57.2047 1.95898C57.2047 2.17578 57.1637 2.38086 57.0816 2.57422C56.9996 2.76172 56.8883 2.92578 56.7477 3.06641C56.607 3.20703 56.443 3.31836 56.2555 3.40039C56.068 3.48242 55.8688 3.52344 55.6578 3.52344C55.4352 3.52344 55.2271 3.48242 55.0338 3.40039C54.8463 3.31836 54.6822 3.20703 54.5416 3.06641C54.401 2.92578 54.2896 2.76172 54.2076 2.57422C54.1314 2.38086 54.0934 2.17578 54.0934 1.95898ZM67.348 8.20801H64.8782V7.26758C64.638 7.26758 64.4183 7.28516 64.2191 7.32031C64.0198 7.34961 63.8441 7.40234 63.6917 7.47852C63.5452 7.55469 63.4193 7.66016 63.3138 7.79492C63.2142 7.92969 63.1439 8.09668 63.1029 8.2959V11.5918H64.9573V14H59.0159V11.5918H60.3782V7.30273H59.0335V4.89453H63.0853V5.53613C63.3431 5.33105 63.6331 5.17285 63.9554 5.06152C64.2777 4.9502 64.6292 4.89453 65.0101 4.89453C65.3968 4.89453 65.7952 4.89746 66.2054 4.90332C66.6155 4.90918 66.9964 4.91211 67.348 4.91211V8.20801ZM70.4864 10.0186L70.5127 10.291C70.5772 10.5547 70.6856 10.7861 70.8379 10.9854C70.9961 11.1846 71.1807 11.3516 71.3916 11.4863C71.6026 11.6211 71.837 11.7236 72.0948 11.7939C72.3526 11.8584 72.6133 11.8906 72.877 11.8906C73.1407 11.8906 73.3897 11.876 73.6241 11.8467C73.8643 11.8115 74.0957 11.7676 74.3184 11.7148C74.5411 11.6562 74.7579 11.5918 74.9688 11.5215C75.1797 11.4453 75.3936 11.3662 75.6104 11.2842L76.5772 13.0859C76.2432 13.291 75.9356 13.4668 75.6543 13.6133C75.3789 13.7539 75.1006 13.8711 74.8194 13.9648C74.5381 14.0586 74.2393 14.126 73.9229 14.167C73.6065 14.2139 73.2373 14.2373 72.8155 14.2373C72.0245 14.2373 71.3213 14.1084 70.7061 13.8506C70.0909 13.5869 69.5723 13.2324 69.1504 12.7871C68.7344 12.3418 68.4151 11.8203 68.1924 11.2227C67.9756 10.625 67.8672 9.99219 67.8672 9.32422C67.8672 8.65625 67.9815 8.0293 68.21 7.44336C68.4444 6.85742 68.7725 6.34766 69.1944 5.91406C69.6162 5.47461 70.1202 5.12891 70.7061 4.87695C71.292 4.625 71.9424 4.49902 72.6573 4.49902C73.3721 4.49902 74.0049 4.61914 74.5557 4.85938C75.1123 5.09375 75.5811 5.42188 75.962 5.84375C76.3428 6.25977 76.6358 6.75195 76.8409 7.32031C77.0459 7.88281 77.1573 8.48926 77.1748 9.13965C77.1924 9.28613 77.2012 9.43262 77.2012 9.5791C77.2071 9.71973 77.2041 9.86621 77.1924 10.0186H70.4864ZM72.587 6.69629C72.2588 6.69629 71.9776 6.7373 71.7432 6.81934C71.5147 6.89551 71.3213 7.00391 71.1631 7.14453C71.0049 7.2793 70.8789 7.43457 70.7852 7.61035C70.6914 7.78613 70.6182 7.9707 70.5655 8.16406H74.3711C74.3301 7.96484 74.2715 7.77734 74.1954 7.60156C74.1192 7.42578 74.0137 7.27051 73.8789 7.13574C73.7442 7.00098 73.5713 6.89551 73.3604 6.81934C73.1553 6.7373 72.8975 6.69629 72.587 6.69629Z" fill="#282828"/>
</svg>
