<?xml version="1.0" standalone="no"?>
<!DOCTYPE svg PUBLIC "-//W3C//DTD SVG 20010904//EN"
 "http://www.w3.org/TR/2001/REC-SVG-20010904/DTD/svg10.dtd">
<svg version="1.0" xmlns="http://www.w3.org/2000/svg"
 width="2480.000000pt" height="1748.000000pt" viewBox="0 0 2480.000000 1748.000000"
 preserveAspectRatio="xMidYMid meet">

<g transform="translate(0.000000,1748.000000) scale(0.100000,-0.100000)"
fill="red" stroke="none">
<path fill='red' d="M7603 16204 l-32 -42 29 9 c21 8 29 18 33 42 2 18 4 32 3 33 0 1 -15
-18 -33 -42z"/>
<path fill='red' d="M8087 16217 c-32 -27 -34 -57 -7 -82 20 -18 20 -17 20 19 0 21 5 46
11 58 16 29 6 31 -24 5z"/>
<path fill='red' d="M8051 15894 c0 -11 3 -14 6 -6 3 7 2 16 -1 19 -3 4 -6 -2 -5 -13z"/>
<path fill='red' d="M8042 15845 c0 -16 2 -22 5 -12 2 9 2 23 0 30 -3 6 -5 -1 -5 -18z"/>
<path fill='red' d="M7171 15414 c0 -11 3 -14 6 -6 3 7 2 16 -1 19 -3 4 -6 -2 -5 -13z"/>
<path fill='red' d="M7150 15341 c-6 -28 -10 -56 -8 -62 2 -7 10 14 17 45 7 32 11 60 8
62 -3 3 -10 -18 -17 -45z"/>
<path fill='red' d="M7035 15025 c-5 -11 -26 -42 -48 -70 l-40 -50 52 51 c37 35 52 57 49
70 -5 18 -5 18 -13 -1z"/>
<path fill='red' d="M7671 14934 c0 -11 3 -14 6 -6 3 7 2 16 -1 19 -3 4 -6 -2 -5 -13z"/>
<path fill='red' d="M7584 14818 l-19 -23 23 19 c21 18 27 26 19 26 -2 0 -12 -10 -23 -22z"/>
<path fill='red' d="M7550 14770 c-6 -11 -8 -20 -6 -20 3 0 10 9 16 20 6 11 8 20 6 20 -3
0 -10 -9 -16 -20z"/>
<path fill='red' d="M7506 14693 c-6 -14 -5 -15 5 -6 7 7 10 15 7 18 -3 3 -9 -2 -12 -12z"/>
<path fill='red' d="M6901 14644 c-1 -17 -10 -56 -20 -87 -19 -53 -19 -56 -2 -45 22 13
43 113 30 143 -6 17 -8 15 -8 -11z"/>
<path fill='red' d="M7466 14605 c-3 -9 -6 -24 -5 -33 0 -9 5 -4 10 12 9 32 6 48 -5 21z"/>
<path fill='red' d="M7396 14405 c-9 -26 -7 -32 5 -12 6 10 9 21 6 23 -2 3 -7 -2 -11 -11z"/>
<path fill='red' d="M6796 14263 c-3 -21 -6 -51 -5 -68 l0 -30 15 28 c10 18 13 41 9 64
-8 49 -11 51 -19 6z"/>
<path fill='red' d="M6637 13833 c-4 -3 -7 -13 -7 -21 0 -8 -11 -36 -24 -62 -24 -47 -24
-49 -4 -41 22 8 49 71 46 108 -3 26 -2 25 -11 16z"/>
<path fill='red' d="M7246 13563 c-6 -14 -5 -15 5 -6 7 7 10 15 7 18 -3 3 -9 -2 -12 -12z"/>
<path fill='red' d="M6481 13545 c-1 -11 -17 -49 -36 -85 -34 -65 -27 -60 21 14 16 24 24
48 21 65 -3 18 -5 20 -6 6z"/>
<path fill='red' d="M7233 13455 c0 -27 2 -38 4 -22 2 15 2 37 0 50 -2 12 -4 0 -4 -28z"/>
<path fill='red' d="M7185 13257 c-13 -20 -14 -30 -6 -46 6 -11 12 -32 13 -48 0 -15 4 4
8 42 3 39 5 72 4 73 -1 2 -10 -8 -19 -21z"/>
<path fill='red' d="M7142 12865 c0 -16 2 -22 5 -12 2 9 2 23 0 30 -3 6 -5 -1 -5 -18z"/>
<path fill='red' d="M7126 12765 c-4 -22 -12 -56 -18 -76 -7 -26 -7 -42 1 -57 6 -11 11
-31 12 -44 1 -15 5 -9 12 18 7 23 18 49 26 58 8 10 10 22 5 33 -4 10 -13 38
-19 63 l-12 45 -7 -40z"/>
<path fill='red' d="M6180 12641 c0 -11 31 -24 39 -16 3 3 -1 10 -9 15 -19 12 -30 12 -30
1z"/>
<path fill='red' d="M5976 12480 c-5 -14 -14 -32 -21 -40 -12 -13 -9 -15 18 -14 49 2 51
3 35 22 -9 9 -18 26 -20 37 -4 18 -5 17 -12 -5z"/>
<path fill='red' d="M7106 12384 c-4 -20 -5 -38 -2 -41 2 -3 8 11 12 31 3 21 4 39 1 42
-2 3 -8 -11 -11 -32z"/>
<path fill='red' d="M7086 12295 c-3 -9 -6 -22 -5 -28 0 -7 5 -1 10 12 5 13 8 26 5 28 -2
2 -6 -3 -10 -12z"/>
<path fill='red' d="M5868 12247 c-4 -33 -3 -34 19 -24 28 12 29 19 4 41 -18 16 -19 16
-23 -17z"/>
<path fill='red' d="M9128 12163 c-3 -16 -8 -35 -12 -44 -6 -14 0 -15 54 -6 33 5 60 13
60 17 0 4 -13 13 -30 20 -16 7 -35 18 -41 26 -17 21 -26 17 -31 -13z"/>
<path fill='red' d="M5824 12159 c-19 -22 -19 -22 4 -10 12 6 22 16 22 21 0 15 -5 12 -26
-11z"/>
<path fill='red' d="M9863 12055 c0 -33 2 -45 4 -27 2 18 2 45 0 60 -2 15 -4 0 -4 -33z"/>
<path fill='red' d="M7012 11990 c0 -14 2 -19 5 -12 2 6 2 18 0 25 -3 6 -5 1 -5 -13z"/>
<path fill='red' d="M19419 11994 c-12 -15 -11 -16 11 -9 14 5 43 12 65 16 l40 6 -51 2
c-37 1 -55 -4 -65 -15z"/>
<path fill='red' d="M6475 11913 c-12 -26 -14 -38 -6 -41 6 -2 11 -26 12 -55 1 -50 1 -51
9 -17 16 65 22 150 12 150 -5 0 -18 -17 -27 -37z"/>
<path fill='red' d="M9032 11930 c0 -14 2 -19 5 -12 2 6 2 18 0 25 -3 6 -5 1 -5 -13z"/>
<path fill='red' d="M7003 11895 c0 -22 2 -30 4 -17 2 12 2 30 0 40 -3 9 -5 -1 -4 -23z"/>
<path fill='red' d="M19316 11893 c-4 -9 -2 -21 4 -27 7 -7 10 -2 10 17 0 31 -5 34 -14
10z"/>
<path fill='red' d="M9032 11860 c0 -14 2 -19 5 -12 2 6 2 18 0 25 -3 6 -5 1 -5 -13z"/>
<path fill='red' d="M9901 11724 c0 -11 3 -14 6 -6 3 7 2 16 -1 19 -3 4 -6 -2 -5 -13z"/>
<path fill='red' d="M6396 11705 c-3 -9 -6 -22 -5 -28 0 -7 5 -1 10 12 5 13 8 26 5 28 -2
2 -6 -3 -10 -12z"/>
<path fill='red' d="M8976 11653 c-6 -14 -5 -15 5 -6 7 7 10 15 7 18 -3 3 -9 -2 -12 -12z"/>
<path fill='red' d="M9887 11630 c-4 -14 -6 -36 -6 -50 1 -22 2 -20 10 8 6 19 9 41 7 50
-3 12 -6 10 -11 -8z"/>
<path fill='red' d="M8915 11540 c-18 -20 -16 -38 3 -26 8 5 24 46 18 46 -2 0 -11 -9 -21
-20z"/>
<path fill='red' d="M23306 11527 c-31 -41 -32 -47 -6 -47 14 0 20 7 20 21 0 11 5 29 10
40 16 30 4 22 -24 -14z"/>
<path fill='red' d="M6961 11484 c0 -11 3 -14 6 -6 3 7 2 16 -1 19 -3 4 -6 -2 -5 -13z"/>
<path fill='red' d="M5480 11475 c0 -9 6 -12 15 -9 8 4 15 7 15 9 0 2 -7 5 -15 9 -9 3
-15 0 -15 -9z"/>
<path fill='red' d="M5470 11403 c0 -10 -9 -36 -19 -57 -18 -33 -18 -37 -3 -31 9 4 25 10
35 12 14 5 17 14 15 46 -3 40 -28 67 -28 30z"/>
<path fill='red' d="M6946 11405 c-3 -9 -6 -24 -5 -33 0 -9 5 -4 10 12 9 32 6 48 -5 21z"/>
<path fill='red' d="M8775 11368 c-18 -52 -45 -184 -42 -202 3 -16 5 -15 6 7 0 15 10 46
21 69 11 22 17 44 15 49 -3 4 -1 26 4 48 8 38 6 57 -4 29z"/>
<path fill='red' d="M6927 11319 c-3 -12 -2 -31 3 -42 7 -18 9 -14 9 21 1 46 -4 54 -12
21z"/>
<path fill='red' d="M9240 11221 c0 -5 -20 -32 -45 -59 -38 -42 -45 -55 -39 -76 10 -41
19 -39 48 13 34 63 58 131 46 131 -6 0 -10 -4 -10 -9z"/>
<path fill='red' d="M6402 11170 c0 -19 2 -27 5 -17 2 9 2 25 0 35 -3 9 -5 1 -5 -18z"/>
<path fill='red' d="M8722 11120 c0 -14 2 -19 5 -12 2 6 2 18 0 25 -3 6 -5 1 -5 -13z"/>
<path fill='red' d="M6391 11114 c0 -11 3 -14 6 -6 3 7 2 16 -1 19 -3 4 -6 -2 -5 -13z"/>
<path fill='red' d="M6190 11099 c-6 -11 -10 -25 -8 -30 2 -5 8 4 15 21 13 34 9 40 -7 9z"/>
<path fill='red' d="M6931 11044 c0 -11 3 -14 6 -6 3 7 2 16 -1 19 -3 4 -6 -2 -5 -13z"/>
<path fill='red' d="M8706 11045 c-9 -26 -7 -32 5 -12 6 10 9 21 6 23 -2 3 -7 -2 -11 -11z"/>
<path fill='red' d="M6171 11034 c0 -11 3 -14 6 -6 3 7 2 16 -1 19 -3 4 -6 -2 -5 -13z"/>
<path fill='red' d="M21925 11010 c-10 -11 -16 -22 -14 -24 2 -3 14 6 26 20 12 13 18 24
14 24 -4 0 -16 -9 -26 -20z"/>
<path fill='red' d="M6921 11004 c0 -11 3 -14 6 -6 3 7 2 16 -1 19 -3 4 -6 -2 -5 -13z"/>
<path fill='red' d="M8677 10951 c-4 -17 -3 -21 5 -13 5 5 8 16 6 23 -3 8 -7 3 -11 -10z"/>
<path fill='red' d="M6907 10931 c-4 -17 -3 -21 5 -13 5 5 8 16 6 23 -3 8 -7 3 -11 -10z"/>
<path fill='red' d="M6352 10895 c0 -16 2 -22 5 -12 2 9 2 23 0 30 -3 6 -5 -1 -5 -18z"/>
<path fill='red' d="M5249 10858 c-3 -43 0 -59 10 -63 23 -9 36 11 24 37 -7 13 -16 37
-21 53 -9 28 -10 25 -13 -27z"/>
<path fill='red' d="M21862 10854 c-22 -34 -22 -35 -2 -24 22 12 34 33 28 49 -1 6 -13 -6
-26 -25z"/>
<path fill='red' d="M6882 10840 c0 -19 2 -27 5 -17 2 9 2 25 0 35 -3 9 -5 1 -5 -18z"/>
<path fill='red' d="M6356 10714 c-4 -31 -5 -59 -2 -61 2 -3 8 21 11 52 4 31 5 58 3 61
-3 2 -8 -21 -12 -52z"/>
<path fill='red' d="M22140 10730 c-14 -20 -16 -28 -7 -24 13 5 42 54 32 54 -2 0 -13 -13
-25 -30z"/>
<path fill='red' d="M8592 10716 c-7 -18 -21 -41 -32 -51 -11 -10 -20 -30 -20 -44 l0 -26
18 28 c10 15 28 36 40 48 22 20 30 63 14 73 -5 3 -14 -10 -20 -28z"/>
<path fill='red' d="M21663 10656 c-15 -13 -25 -27 -22 -30 3 -3 18 8 34 24 35 36 27 40
-12 6z"/>
<path fill='red' d="M8957 10663 c-4 -7 -3 -14 3 -18 5 -3 10 -25 10 -48 0 -38 1 -40 17
-25 12 12 13 21 6 30 -6 7 -15 26 -20 43 -6 17 -12 24 -16 18z"/>
<path fill='red' d="M21626 10595 c-9 -26 -7 -32 5 -12 6 10 9 21 6 23 -2 3 -7 -2 -11
-11z"/>
<path fill='red' d="M6341 10584 c0 -11 3 -14 6 -6 3 7 2 16 -1 19 -3 4 -6 -2 -5 -13z"/>
<path fill='red' d="M5972 10560 c-12 -16 -22 -39 -21 -52 0 -23 0 -23 11 2 5 14 17 37
25 53 19 35 12 34 -15 -3z"/>
<path fill='red' d="M8531 10564 c0 -11 3 -14 6 -6 3 7 2 16 -1 19 -3 4 -6 -2 -5 -13z"/>
<path fill='red' d="M5122 10496 c-7 -16 -8 -26 -1 -26 12 0 22 25 17 41 -2 6 -9 0 -16
-15z"/>
<path fill='red' d="M21387 10473 c21 -16 51 -16 80 0 19 10 14 12 -38 12 -50 0 -56 -2
-42 -12z"/>
<path fill='red' d="M8491 10440 c-1 -3 -4 -21 -6 -39 -2 -27 -1 -31 7 -18 5 10 7 28 5
40 -2 12 -5 20 -6 17z"/>
<path fill='red' d="M5894 10396 c-15 -24 -46 -137 -39 -144 2 -2 9 16 15 39 14 55 31
100 43 117 5 6 7 12 3 12 -3 0 -13 -11 -22 -24z"/>
<path fill='red' d="M21774 10308 c-14 -28 -15 -31 -2 -20 14 11 31 52 22 52 -2 0 -11
-15 -20 -32z"/>
<path fill='red' d="M20647 10317 c-4 -10 -7 -35 -6 -55 l1 -37 9 40 c11 45 8 82 -4 52z"/>
<path fill='red' d="M6297 10298 c-4 -14 -10 -34 -13 -45 -6 -15 -3 -15 16 4 19 18 22 26
13 45 l-10 22 -6 -26z"/>
<path fill='red' d="M18220 10153 c0 -15 -7 -40 -14 -55 -20 -37 -5 -36 17 1 19 32 22 67
7 76 -6 4 -10 -6 -10 -22z"/>
<path fill='red' d="M6261 10154 c0 -11 3 -14 6 -6 3 7 2 16 -1 19 -3 4 -6 -2 -5 -13z"/>
<path fill='red' d="M5030 10150 c0 -5 7 -10 15 -10 8 0 15 5 15 10 0 6 -7 10 -15 10 -8
0 -15 -4 -15 -10z"/>
<path fill='red' d="M9000 10131 c0 -5 6 -13 13 -19 10 -8 16 -6 25 9 11 17 9 19 -13 19
-14 0 -25 -4 -25 -9z"/>
<path fill='red' d="M19269 10113 l-24 -28 28 24 c15 14 27 26 27 28 0 8 -8 1 -31 -24z"/>
<path fill='red' d="M21296 10123 c-6 -14 -5 -15 5 -6 7 7 10 15 7 18 -3 3 -9 -2 -12 -12z"/>
<path fill='red' d="M4851 10064 c0 -11 3 -14 6 -6 3 7 2 16 -1 19 -3 4 -6 -2 -5 -13z"/>
<path fill='red' d="M8380 10038 c-12 -22 -12 -22 6 -6 10 10 15 20 12 24 -4 3 -12 -5
-18 -18z"/>
<path fill='red' d="M18161 10027 c-13 -21 -12 -21 5 -5 10 10 16 20 13 22 -3 3 -11 -5
-18 -17z"/>
<path fill='red' d="M4841 9994 c0 -11 3 -14 6 -6 3 7 2 16 -1 19 -3 4 -6 -2 -5 -13z"/>
<path fill='red' d="M6752 9975 c0 -16 2 -22 5 -12 2 9 2 23 0 30 -3 6 -5 -1 -5 -18z"/>
<path fill='red' d="M6253 9930 c0 -36 2 -50 4 -32 2 17 2 47 0 65 -2 17 -4 3 -4 -33z"/>
<path fill='red' d="M6745 9881 c2 -35 9 -68 15 -75 9 -8 11 -5 5 14 -4 13 -11 47 -16 75
-8 49 -8 49 -4 -14z"/>
<path fill='red' d="M8870 9915 c-13 -14 -19 -25 -13 -25 6 0 18 11 27 25 9 14 15 25 13
25 -2 0 -14 -11 -27 -25z"/>
<path fill='red' d="M19478 9913 c6 -3 12 -12 12 -21 0 -15 2 -15 10 -2 14 22 12 26 -12
27 -13 0 -17 -1 -10 -4z"/>
<path fill='red' d="M4830 9875 c0 -21 2 -24 14 -13 7 7 11 19 9 25 -9 22 -23 14 -23 -12z"/>
<path fill='red' d="M21700 9815 c-6 -8 -10 -19 -8 -26 2 -6 9 0 16 15 13 29 10 33 -8 11z"/>
<path fill='red' d="M6247 9778 c-8 -30 -1 -35 12 -9 6 11 7 22 2 25 -5 3 -11 -4 -14 -16z"/>
<path fill='red' d="M6770 9780 c0 -5 5 -10 11 -10 5 0 7 5 4 10 -3 6 -8 10 -11 10 -2 0
-4 -4 -4 -10z"/>
<path fill='red' d="M18738 9759 c-18 -16 -24 -26 -13 -20 33 17 71 51 58 51 -7 0 -27
-14 -45 -31z"/>
<path fill='red' d="M19440 9748 c0 -16 5 -28 10 -28 13 0 13 20 0 40 -8 12 -10 9 -10
-12z"/>
<path fill='red' d="M21180 9766 c0 -2 7 -9 15 -16 13 -11 14 -10 9 4 -5 14 -24 23 -24
12z"/>
<path fill='red' d="M5597 9733 c-4 -3 -7 -11 -7 -17 0 -6 5 -5 12 2 6 6 9 14 7 17 -3 3
-9 2 -12 -2z"/>
<path fill='red' d="M4830 9705 c0 -21 5 -25 30 -25 17 0 30 4 30 10 0 5 -13 16 -30 25
-30 15 -30 15 -30 -10z"/>
<path fill='red' d="M16250 9723 c-14 -3 -34 -13 -45 -23 -11 -10 -33 -26 -50 -34 -27
-15 -28 -16 -7 -16 13 0 35 6 50 14 34 18 99 66 86 65 -5 -1 -20 -4 -34 -6z"/>
<path fill='red' d="M19865 9719 c-4 -6 -5 -12 -2 -15 2 -3 7 2 10 11 7 17 1 20 -8 4z"/>
<path fill='red' d="M6212 9629 c-2 -44 -31 -129 -44 -129 -5 0 -2 -10 6 -22 9 -13 17
-46 17 -78 l2 -55 7 45 c4 25 12 68 17 95 6 28 7 79 3 115 -4 39 -8 51 -8 29z"/>
<path fill='red' d="M16055 9623 c-9 -10 -28 -33 -43 -52 -23 -30 -24 -33 -5 -23 26 14
89 92 74 92 -6 0 -18 -8 -26 -17z"/>
<path fill='red' d="M16598 9623 c7 -3 16 -2 19 1 4 3 -2 6 -13 5 -11 0 -14 -3 -6 -6z"/>
<path fill='red' d="M17723 9599 c-43 -30 -58 -48 -25 -30 21 12 79 60 72 60 -3 0 -24
-13 -47 -30z"/>
<path fill='red' d="M6726 9583 c-6 -14 -5 -15 5 -6 7 7 10 15 7 18 -3 3 -9 -2 -12 -12z"/>
<path fill='red' d="M6706 9515 c-9 -26 -7 -32 5 -12 6 10 9 21 6 23 -2 3 -7 -2 -11 -11z"/>
<path fill='red' d="M4661 9482 c-21 -86 -22 -82 9 -75 18 3 37 -1 51 -11 32 -22 43 -20
34 7 -4 12 -6 33 -6 47 1 19 -8 30 -39 47 l-40 21 -9 -36z"/>
<path fill='red' d="M19993 9484 c-12 -9 -52 -19 -90 -23 l-68 -8 71 -2 c63 -1 73 2 94
24 27 28 25 31 -7 9z"/>
<path fill='red' d="M15916 9473 c-6 -14 -5 -15 5 -6 7 7 10 15 7 18 -3 3 -9 -2 -12 -12z"/>
<path fill='red' d="M19411 9464 c0 -11 3 -14 6 -6 3 7 2 16 -1 19 -3 4 -6 -2 -5 -13z"/>
<path fill='red' d="M18310 9444 c-19 -7 -47 -13 -61 -13 -15 -1 -31 -7 -37 -14 -14 -16
-26 -67 -16 -67 4 0 31 18 60 40 29 22 57 40 62 40 5 0 15 7 22 15 7 8 11 14
9 14 -2 -1 -20 -7 -39 -15z"/>
<path fill='red' d="M6681 9414 c0 -11 3 -14 6 -6 3 7 2 16 -1 19 -3 4 -6 -2 -5 -13z"/>
<path fill='red' d="M8613 9408 c-12 -15 -25 -65 -14 -52 9 11 32 64 27 64 -2 0 -8 -6
-13 -12z"/>
<path fill='red' d="M14924 9376 c-3 -8 -1 -23 5 -33 9 -15 10 -13 11 15 0 34 -7 42 -16
18z"/>
<path fill='red' d="M16832 9293 c-24 -14 -41 -27 -39 -29 9 -9 68 20 78 37 12 23 13 24
-39 -8z"/>
<path fill='red' d="M20210 9280 c-21 -18 -28 -30 -19 -30 8 0 25 14 37 30 28 37 26 37
-18 0z"/>
<path fill='red' d="M5415 9289 c-4 -6 -5 -12 -2 -15 2 -3 7 2 10 11 7 17 1 20 -8 4z"/>
<path fill='red' d="M17263 9271 c-39 -20 -96 -75 -67 -65 22 8 121 85 108 83 -5 -1 -23
-9 -41 -18z"/>
<path fill='red' d="M13078 9253 c7 -3 16 -2 19 1 4 3 -2 6 -13 5 -11 0 -14 -3 -6 -6z"/>
<path fill='red' d="M16110 9209 c0 -17 27 -45 35 -37 3 3 -3 16 -14 29 -16 19 -20 20
-21 8z"/>
<path fill='red' d="M8551 9185 c0 -17 -7 -38 -13 -45 -7 -8 -5 -8 5 1 13 11 17 26 14 45
l-4 29 -2 -30z"/>
<path fill='red' d="M8022 9178 c-7 -7 -12 -16 -12 -22 0 -5 -8 -18 -17 -29 -18 -20 -18
-20 9 -3 15 10 30 27 34 38 7 24 1 31 -14 16z"/>
<path fill='red' d="M6162 9150 c0 -14 2 -19 5 -12 2 6 2 18 0 25 -3 6 -5 1 -5 -13z"/>
<path fill='red' d="M17535 9060 c-3 -5 1 -10 9 -10 10 0 16 -9 16 -22 0 -19 2 -20 10 -8
16 25 12 50 -9 50 -11 0 -23 -4 -26 -10z"/>
<path fill='red' d="M13023 9025 c0 -22 2 -30 4 -17 2 12 2 30 0 40 -3 9 -5 -1 -4 -23z"/>
<path fill='red' d="M18220 9008 c-28 -30 -33 -47 -11 -34 14 9 54 66 46 66 -3 0 -19 -14
-35 -32z"/>
<path fill='red' d="M5313 9005 c-9 -25 4 -29 17 -6 7 15 7 21 0 21 -6 0 -13 -7 -17 -15z"/>
<path fill='red' d="M17440 9000 c-13 -8 -12 -10 3 -10 9 0 17 5 17 10 0 12 -1 12 -20 0z"/>
<path fill='red' d="M6631 8908 c-6 -18 -13 -53 -16 -78 -9 -67 14 -25 25 47 11 65 7 79
-9 31z"/>
<path fill='red' d="M13001 8903 c0 -6 -4 -20 -7 -30 -5 -14 -4 -15 5 -7 7 7 11 20 8 30
-3 11 -5 14 -6 7z"/>
<path fill='red' d="M15787 8897 c-3 -8 -1 -20 4 -28 6 -10 9 -7 9 14 0 29 -5 35 -13 14z"/>
<path fill='red' d="M16264 8897 c-14 -37 13 -47 115 -45 l96 2 -90 5 c-82 6 -90 8 -102
31 -10 21 -13 22 -19 7z"/>
<path fill='red' d="M16540 8880 l-25 -8 25 0 c14 0 34 3 45 8 l20 9 -20 -1 c-11 0 -31
-4 -45 -8z"/>
<path fill='red' d="M7811 8864 c0 -11 3 -14 6 -6 3 7 2 16 -1 19 -3 4 -6 -2 -5 -13z"/>
<path fill='red' d="M8472 8850 c0 -19 2 -27 5 -17 2 9 2 25 0 35 -3 9 -5 1 -5 -18z"/>
<path fill='red' d="M4452 8850 c0 -14 2 -19 5 -12 2 6 2 18 0 25 -3 6 -5 1 -5 -13z"/>
<path fill='red' d="M16488 8863 c7 -3 16 -2 19 1 4 3 -2 6 -13 5 -11 0 -14 -3 -6 -6z"/>
<path fill='red' d="M7802 8798 c-8 -24 -21 -52 -30 -62 -16 -18 -16 -18 6 -7 35 19 55
56 45 86 -8 24 -9 24 -21 -17z"/>
<path fill='red' d="M15806 8803 c4 -22 -1 -35 -20 -56 -35 -38 -33 -53 4 -27 24 17 30
28 30 60 0 21 -4 42 -10 45 -6 4 -8 -5 -4 -22z"/>
<path fill='red' d="M13443 8760 c0 -25 2 -35 4 -22 2 12 2 32 0 45 -2 12 -4 2 -4 -23z"/>
<path fill='red' d="M4445 8740 c-3 -5 1 -10 9 -10 9 0 16 5 16 10 0 6 -4 10 -9 10 -6 0
-13 -4 -16 -10z"/>
<path fill='red' d="M6101 8704 c0 -11 3 -14 6 -6 3 7 2 16 -1 19 -3 4 -6 -2 -5 -13z"/>
<path fill='red' d="M8365 8606 c-14 -19 -25 -38 -24 -42 3 -13 -11 -85 -21 -109 -13 -31
-20 -55 -16 -55 11 0 46 85 46 113 0 18 11 53 24 80 13 26 22 47 20 47 -2 0
-15 -15 -29 -34z"/>
<path fill='red' d="M15973 8620 c-18 -11 -33 -22 -33 -24 0 -7 93 25 105 35 19 18 -41 9
-72 -11z"/>
<path fill='red' d="M17263 8585 c-15 -13 -23 -24 -18 -25 13 0 26 10 44 33 19 25 7 21
-26 -8z"/>
<path fill='red' d="M15270 8590 c0 -6 7 -10 15 -10 8 0 15 2 15 4 0 2 -7 6 -15 10 -8 3
-15 1 -15 -4z"/>
<path fill='red' d="M15422 8583 c-12 -2 -20 -9 -17 -14 9 -13 28 -11 51 6 20 15 13 17
-34 8z"/>
<path fill='red' d="M11821 8534 c0 -11 3 -14 6 -6 3 7 2 16 -1 19 -3 4 -6 -2 -5 -13z"/>
<path fill='red' d="M6532 8500 c0 -14 2 -19 5 -12 2 6 2 18 0 25 -3 6 -5 1 -5 -13z"/>
<path fill='red' d="M10661 8388 c0 -58 4 -84 8 -68 12 40 13 148 1 155 -7 4 -10 -24 -9
-87z"/>
<path fill='red' d="M8100 8404 c0 -10 7 -14 22 -12 32 5 35 28 4 28 -17 0 -26 -5 -26
-16z"/>
<path fill='red' d="M4997 8363 c-9 -8 -7 -81 3 -113 5 -16 7 1 6 47 0 40 -1 73 -2 73 0
0 -4 -3 -7 -7z"/>
<path fill='red' d="M13745 8319 c-49 -24 -68 -29 -104 -24 -44 5 -44 5 -26 -15 27 -29
76 -26 128 10 37 25 78 62 66 59 -2 0 -31 -14 -64 -30z"/>
<path fill='red' d="M4271 8315 c0 -11 -8 -33 -17 -50 l-15 -30 21 21 c15 15 20 30 17 50
-2 17 -5 21 -6 9z"/>
<path fill='red' d="M11713 8299 c-7 -7 -13 -30 -13 -52 0 -21 -5 -48 -11 -60 -10 -20 -8
-19 15 4 23 22 27 33 24 73 -2 38 -5 45 -15 35z"/>
<path fill='red' d="M15235 8300 c-3 -5 -2 -10 4 -10 5 0 13 5 16 10 3 6 2 10 -4 10 -5 0
-13 -4 -16 -10z"/>
<path fill='red' d="M7394 8258 l-19 -23 23 19 c21 18 27 26 19 26 -2 0 -12 -10 -23 -22z"/>
<path fill='red' d="M11083 8265 c-3 -9 -3 -18 -1 -21 3 -3 8 4 11 16 6 23 -1 27 -10 5z"/>
<path fill='red' d="M9432 8258 c-6 -8 -15 -29 -18 -47 -5 -25 -4 -30 8 -26 8 3 25 19 37
35 16 23 18 30 7 30 -8 0 -16 5 -18 11 -2 7 -8 6 -16 -3z"/>
<path fill='red' d="M9110 8245 c-14 -16 -3 -20 19 -6 8 5 9 11 3 15 -5 3 -15 -1 -22 -9z"/>
<path fill='red' d="M8261 8220 c-1 -8 -4 -26 -7 -40 -5 -22 -4 -23 6 -7 6 10 9 28 7 40
-2 12 -5 15 -6 7z"/>
<path fill='red' d="M16753 8187 c-29 -12 -53 -26 -53 -30 0 -5 -10 -23 -22 -40 l-23 -32
45 33 c51 37 117 92 110 91 -3 -1 -29 -11 -57 -22z"/>
<path fill='red' d="M13168 8148 c2 -29 5 -54 6 -54 0 -1 19 -4 41 -8 33 -5 37 -4 25 6
-8 7 -29 35 -46 61 l-31 49 5 -54z"/>
<path fill='red' d="M12370 8106 c0 -28 24 -46 41 -29 6 6 0 18 -16 33 l-25 23 0 -27z"/>
<path fill='red' d="M7861 8048 c-1 -15 -5 -38 -11 -53 -5 -14 -6 -24 -1 -21 16 10 28 60
20 81 -7 18 -8 17 -8 -7z"/>
<path fill='red' d="M7044 7988 c-17 -18 -37 -42 -45 -53 -13 -19 -13 -19 6 -5 43 32 94
90 78 90 -5 0 -23 -15 -39 -32z"/>
<path fill='red' d="M9811 7964 c0 -11 3 -14 6 -6 3 7 2 16 -1 19 -3 4 -6 -2 -5 -13z"/>
<path fill='red' d="M16567 7960 c-9 -11 -13 -20 -8 -20 11 0 35 29 29 35 -2 2 -12 -4
-21 -15z"/>
<path fill='red' d="M4081 7920 c0 -35 3 -50 8 -40 5 8 5 33 1 55 -8 40 -8 40 -9 -15z"/>
<path fill='red' d="M17255 7959 c-4 -6 -5 -12 -2 -15 2 -3 7 2 10 11 7 17 1 20 -8 4z"/>
<path fill='red' d="M16515 7930 c-3 -6 1 -7 9 -4 18 7 21 14 7 14 -6 0 -13 -4 -16 -10z"/>
<path fill='red' d="M5835 7905 c17 -8 46 -14 65 -14 l35 1 -40 9 c-85 19 -93 20 -60 4z"/>
<path fill='red' d="M7793 7800 c0 -25 2 -35 4 -22 2 12 2 32 0 45 -2 12 -4 2 -4 -23z"/>
<path fill='red' d="M8844 7806 c-3 -8 -4 -29 -2 -48 4 -40 33 -47 33 -8 0 16 -5 24 -14
22 -10 -2 -12 4 -7 23 7 26 -1 35 -10 11z"/>
<path fill='red' d="M10233 7813 c-13 -2 -23 -11 -23 -19 0 -20 14 -18 35 6 10 11 16 19
14 19 -2 -1 -14 -4 -26 -6z"/>
<path fill='red' d="M16760 7745 c-9 -36 -15 -65 -14 -65 7 0 34 67 40 96 11 61 -11 35
-26 -31z"/>
<path fill='red' d="M6342 7738 c-17 -17 -15 -26 7 -37 24 -13 35 9 18 33 -10 13 -15 14
-25 4z"/>
<path fill='red' d="M11791 7720 c-51 -29 -61 -43 -14 -20 23 11 45 24 48 30 8 13 6 12
-34 -10z"/>
<path fill='red' d="M4029 7694 c-9 -19 -13 -34 -8 -34 12 0 31 38 27 54 -2 7 -10 -2 -19
-20z"/>
<path fill='red' d="M8830 7686 c0 -31 6 -34 13 -6 3 11 1 23 -4 26 -5 3 -9 -6 -9 -20z"/>
<path fill='red' d="M4746 7681 c-10 -11 -16 -29 -13 -43 l4 -23 2 24 c0 14 8 33 18 43 9
10 14 18 11 18 -3 0 -13 -9 -22 -19z"/>
<path fill='red' d="M17080 7685 c-7 -9 -11 -17 -9 -20 3 -2 10 5 17 15 14 24 10 26 -8 5z"/>
<path fill='red' d="M11160 7675 c15 -18 51 -16 58 3 2 8 -8 12 -33 12 -33 0 -36 -2 -25
-15z"/>
<path fill='red' d="M9831 7664 c0 -11 3 -14 6 -6 3 7 2 16 -1 19 -3 4 -6 -2 -5 -13z"/>
<path fill='red' d="M11680 7654 c-25 -13 -49 -25 -53 -26 -4 -2 -4 -13 0 -25 8 -20 11
-18 56 28 26 27 47 48 45 48 -2 -1 -23 -12 -48 -25z"/>
<path fill='red' d="M6388 7658 c17 -22 52 -29 87 -19 27 8 25 9 -20 10 -28 1 -57 7 -65
14 -12 10 -12 9 -2 -5z"/>
<path fill='red' d="M16427 7575 c-9 -22 8 -26 21 -4 10 15 10 19 -2 19 -8 0 -16 -7 -19
-15z"/>
<path fill='red' d="M7718 7465 c-6 -30 -3 -43 8 -33 3 4 4 19 2 35 l-3 28 -7 -30z"/>
<path fill='red' d="M8727 7359 c-16 -23 -26 -43 -24 -45 7 -7 57 56 57 72 0 20 -1 18
-33 -27z"/>
<path fill='red' d="M9136 7358 c-9 -34 -7 -81 4 -98 7 -11 10 5 10 53 0 70 -4 82 -14 45z"/>
<path fill='red' d="M8121 7354 c-13 -10 -42 -18 -63 -20 -22 -1 -41 -4 -42 -6 -7 -8 7
-138 15 -138 12 0 80 97 101 143 20 43 20 42 -11 21z"/>
<path fill='red' d="M16817 7353 c-4 -3 -7 -16 -6 -27 0 -19 1 -19 10 3 10 24 8 36 -4 24z"/>
<path fill='red' d="M8282 7335 c0 -11 3 -29 8 -40 11 -25 11 1 0 35 -6 20 -8 21 -8 5z"/>
<path fill='red' d="M11200 7336 c0 -9 40 -13 46 -5 3 5 -6 9 -20 9 -14 0 -26 -2 -26 -4z"/>
<path fill='red' d="M6254 7258 l-19 -23 25 20 c14 11 27 21 29 22 2 2 0 3 -6 3 -5 0 -18
-10 -29 -22z"/>
<path fill='red' d="M8573 7250 c-13 -5 -23 -14 -23 -19 0 -8 53 12 69 26 8 6 -24 2 -46
-7z"/>
<path fill='red' d="M15755 7220 c-51 -37 -72 -57 -98 -95 l-21 -30 29 25 c49 42 140 130
135 130 -3 0 -23 -14 -45 -30z"/>
<path fill='red' d="M8288 7218 c-4 -9 -25 -27 -47 -40 -74 -42 -38 -77 48 -47 24 9 30
16 25 28 -3 9 -9 30 -13 46 -5 23 -8 26 -13 13z"/>
<path fill='red' d="M8760 7180 c0 -11 -3 -20 -7 -20 -5 0 -21 -11 -38 -25 l-30 -25 28
10 c16 5 42 10 58 10 37 0 48 24 24 50 -23 25 -35 25 -35 0z"/>
<path fill='red' d="M15915 7150 c-3 -5 -1 -19 5 -30 10 -20 12 -20 34 -3 21 16 22 19 7
30 -20 15 -38 16 -46 3z"/>
<path fill='red' d="M15590 7065 c-15 -16 -23 -38 -24 -67 -1 -24 -6 -52 -10 -63 -5 -13
2 -9 23 13 17 18 31 38 32 45 2 35 4 97 3 97 0 0 -11 -11 -24 -25z"/>
<path fill='red' d="M9300 7006 c0 -2 8 -10 18 -17 15 -13 16 -12 3 4 -13 16 -21 21 -21
13z"/>
<path fill='red' d="M9378 6973 c6 -2 18 -2 25 0 6 3 1 5 -13 5 -14 0 -19 -2 -12 -5z"/>
<path fill='red' d="M3707 6803 c-4 -3 -7 -11 -7 -17 0 -6 5 -5 12 2 6 6 9 14 7 17 -3 3
-9 2 -12 -2z"/>
<path fill='red' d="M5946 6753 c-4 -9 -3 -20 2 -25 6 -6 11 1 14 16 6 29 -6 35 -16 9z"/>
<path fill='red' d="M7472 6708 c-15 -24 -18 -34 -9 -40 16 -10 23 0 30 40 8 40 4 40 -21
0z"/>
<path fill='red' d="M16086 6714 c-8 -20 -4 -25 11 -16 7 4 9 13 4 21 -6 10 -10 9 -15 -5z"/>
<path fill='red' d="M15346 6695 c-14 -13 -26 -27 -26 -30 0 -4 14 6 30 22 17 15 30 29
30 30 0 7 -9 1 -34 -22z"/>
<path fill='red' d="M15990 6605 c-8 -9 -8 -15 -2 -15 12 0 26 19 19 26 -2 2 -10 -2 -17
-11z"/>
<path fill='red' d="M3642 6580 c0 -14 2 -19 5 -12 2 6 2 18 0 25 -3 6 -5 1 -5 -13z"/>
<path fill='red' d="M16305 6558 l-40 -43 43 40 c39 36 47 45 39 45 -2 0 -21 -19 -42 -42z"/>
<path fill='red' d="M4242 6568 c-7 -7 -12 -16 -12 -22 0 -5 -6 -17 -14 -25 -7 -9 -17
-34 -20 -56 l-7 -40 23 22 c13 14 27 45 33 78 6 30 11 55 10 55 0 0 -6 -5 -13
-12z"/>
<path fill='red' d="M5331 6504 c0 -11 3 -14 6 -6 3 7 2 16 -1 19 -3 4 -6 -2 -5 -13z"/>
<path fill='red' d="M5332 6435 c0 -16 2 -22 5 -12 2 9 2 23 0 30 -3 6 -5 -1 -5 -18z"/>
<path fill='red' d="M15132 6360 c-7 -11 -12 -39 -11 -62 1 -43 1 -43 14 17 7 33 12 61
11 62 -1 1 -7 -7 -14 -17z"/>
<path fill='red' d="M5267 6232 c-30 -62 -32 -72 -17 -72 5 0 14 17 20 39 5 21 17 44 25
51 8 7 15 19 15 26 0 28 -16 12 -43 -44z"/>
<path fill='red' d="M4046 6249 c-23 -26 -35 -59 -22 -59 2 0 16 20 29 45 30 53 28 56 -7
14z"/>
<path fill='red' d="M15111 6225 c0 -11 -8 -33 -16 -49 -18 -35 -16 -39 19 -30 28 7 32
14 17 30 -5 5 -11 23 -14 39 -2 17 -5 21 -6 10z"/>
<path fill='red' d="M3985 6109 c-4 -6 -5 -12 -2 -15 2 -3 7 2 10 11 7 17 1 20 -8 4z"/>
<path fill='red' d="M14994 6105 c-11 -27 2 -37 14 -11 7 16 8 26 1 26 -5 0 -12 -7 -15
-15z"/>
<path fill='red' d="M14967 6011 c-4 -17 -3 -21 5 -13 5 5 8 16 6 23 -3 8 -7 3 -11 -10z"/>
<path fill='red' d="M14859 5856 c-15 -13 -30 -38 -33 -57 -5 -28 -4 -30 4 -11 5 13 22
38 36 57 31 41 29 43 -7 11z"/>
<path fill='red' d="M15470 5779 c0 -5 5 -7 10 -4 6 3 10 8 10 11 0 2 -4 4 -10 4 -5 0
-10 -5 -10 -11z"/>
<path fill='red' d="M3828 5733 c-16 -18 -41 -93 -33 -101 2 -2 8 13 14 34 6 22 18 49 26
62 19 26 15 29 -7 5z"/>
<path fill='red' d="M15135 5667 c-39 -34 -24 -53 32 -42 21 5 31 10 21 12 -9 2 -18 16
-20 30 l-3 27 -30 -27z"/>
<path fill='red' d="M3146 5543 c-6 -14 -5 -15 5 -6 7 7 10 15 7 18 -3 3 -9 -2 -12 -12z"/>
<path fill='red' d="M14718 5506 c-13 -18 -15 -33 -8 -77 4 -33 8 -42 9 -24 1 17 6 47 12
68 13 49 9 61 -13 33z"/>
<path fill='red' d="M3643 5285 c-3 -9 -3 -18 -1 -21 3 -3 8 4 11 16 6 23 -1 27 -10 5z"/>
<path fill='red' d="M3621 5214 c0 -11 3 -14 6 -6 3 7 2 16 -1 19 -3 4 -6 -2 -5 -13z"/>
<path fill='red' d="M14652 5190 c-7 -11 -12 -30 -12 -42 1 -16 5 -11 15 17 16 44 15 53
-3 25z"/>
<path fill='red' d="M2996 5163 c-6 -14 -5 -15 5 -6 7 7 10 15 7 18 -3 3 -9 -2 -12 -12z"/>
<path fill='red' d="M14627 5061 c-4 -17 -3 -21 5 -13 5 5 8 16 6 23 -3 8 -7 3 -11 -10z"/>
<path fill='red' d="M2844 4665 c-9 -40 -9 -43 8 -34 13 7 16 17 11 42 -3 17 -7 33 -7 34
-1 1 -6 -18 -12 -42z"/>
<path fill='red' d="M3320 4451 c0 -11 5 -23 10 -26 6 -4 10 5 10 19 0 14 -4 26 -10 26
-5 0 -10 -9 -10 -19z"/>
<path fill='red' d="M2652 4010 c0 -14 2 -19 5 -12 2 6 2 18 0 25 -3 6 -5 1 -5 -13z"/>
<path fill='red' d="M2636 3963 c-6 -14 -5 -15 5 -6 7 7 10 15 7 18 -3 3 -9 -2 -12 -12z"/>
<path fill='red' d="M2551 3814 c0 -11 3 -14 6 -6 3 7 2 16 -1 19 -3 4 -6 -2 -5 -13z"/>
<path fill='red' d="M3111 3744 c0 -11 3 -14 6 -6 3 7 2 16 -1 19 -3 4 -6 -2 -5 -13z"/>
<path fill='red' d="M2540 3672 c0 -10 -5 -23 -12 -30 -7 -7 -10 -12 -7 -13 66 -10 78 2
39 41 -19 19 -20 19 -20 2z"/>
<path fill='red' d="M2370 3388 c0 -7 -7 -26 -15 -42 -16 -31 -15 -45 2 -24 12 15 27 78
19 78 -3 0 -6 -6 -6 -12z"/>
<path fill='red' d="M2860 3276 c-6 -8 -10 -25 -8 -38 2 -19 5 -17 15 15 12 41 11 44 -7
23z"/>
<path fill='red' d="M2216 3023 c-6 -14 -5 -15 5 -6 7 7 10 15 7 18 -3 3 -9 -2 -12 -12z"/>
<path fill='red' d="M2141 2822 c0 -13 -6 -33 -12 -45 -11 -20 -10 -21 6 -6 11 11 15 27
12 45 -3 23 -4 24 -6 6z"/>
<path fill='red' d="M2692 2758 c-1 -20 -5 -45 -8 -55 -5 -14 -4 -15 5 -7 7 7 11 29 8 55
-3 42 -4 42 -5 7z"/>
<path fill='red' d="M2101 2694 c0 -11 3 -14 6 -6 3 7 2 16 -1 19 -3 4 -6 -2 -5 -13z"/>
<path fill='red' d="M2276 1915 c-3 -9 -6 -24 -5 -33 0 -9 5 -4 10 12 9 32 6 48 -5 21z"/>
<path fill='red' d="M2262 1823 c-1 -23 -6 -45 -12 -48 -5 -3 -10 -21 -9 -38 l0 -32 15
40 c8 22 13 58 11 80 l-4 40 -1 -42z"/>
<path fill='red' d="M2145 1507 c-10 -8 -15 -19 -11 -25 12 -19 23 -14 28 13 6 29 7 29
-17 12z"/>
<path fill='red' d="M1578 1504 c-5 -4 -8 -16 -8 -28 0 -14 3 -17 11 -9 6 6 9 19 7 28 -1
9 -6 13 -10 9z"/>
<path fill='red' d="M1551 1424 c-12 -27 -11 -28 4 -12 10 9 16 21 13 28 -2 7 -10 -1 -17
-16z"/>
<path fill='red' d="M1975 1210 c4 -6 11 -8 16 -5 14 9 11 15 -7 15 -8 0 -12 -5 -9 -10z"/>
<path fill='red' d="M1368 1113 c-3 -13 -2 -26 4 -29 14 -9 16 -2 8 26 -6 25 -6 25 -12 3z"/>
</g>
</svg>
